<svg width="28" height="28" xmlns="http://www.w3.org/2000/svg" fill="none">

 <g>
  <title>Layer 1</title>
  <path id="svg_1" fill="#232323" d="m27.5735,13.3916l-7.8945,-7.79824c-0.3075,-0.30372 -0.806,-0.30372 -1.1135,0l-2.5452,2.51419c-0.0332,0.0328 -0.0628,0.0678 -0.0888,0.10453l-0.4597,0.45406l1.5906,1.57126l3.2425,3.2024c0.3075,0.3037 0.3075,0.7961 0,1.0998l-4.2764,4.2243c-0.0075,0.0074 -0.0148,0.015 -0.022,0.0226l-0.5347,0.5282l0.8351,0.8249l2.2668,2.2384c0.3075,0.3037 0.806,0.3037 1.1135,0l7.6956,-7.6019c0.0265,-0.0261 0.0513,-0.0532 0.0745,-0.0811c0.025,-0.0301 0.0503,-0.0599 0.0782,-0.0874l0.038,-0.0375c0.3294,-0.3254 0.3294,-0.853 0,-1.1785z"/>
  <path id="svg_2" fill="#232323" d="m1.14453,13.4028l7.89449,-7.79827c0.30747,-0.30372 0.80597,-0.30372 1.11348,0l2.5452,2.51419c0.0332,0.0328 0.0628,0.0678 0.0888,0.10453l0.4597,0.45406l-1.5906,1.57129l-3.2425,3.2023c-0.30747,0.3038 -0.30747,0.7962 0,1.0999l4.2764,4.2243c0.0075,0.0074 0.0148,0.0149 0.022,0.0226l0.5347,0.5282l-0.8351,0.8249l-2.2668,2.2383c-0.30751,0.3038 -0.80601,0.3038 -1.11348,0l-7.81495,-7.7197c-0.03986,-0.0394 -0.07546,-0.0813 -0.10681,-0.1254c-0.2935,-0.3272 -0.28167,-0.8279 0.03547,-1.1412z"/>
  <path id="svg_3" fill="#232323" d="m14.9436,0.91073l2.5034,2.47294c0.3294,0.32542 0.3294,0.85302 0,1.17843l-2.5034,2.47294c-0.3295,0.32542 -0.8636,0.32542 -1.193,0l-2.5035,-2.47294c-0.3294,-0.32541 -0.3294,-0.85301 0,-1.17843l2.5035,-2.47294c0.3294,-0.32541 0.8635,-0.32541 1.193,0z"/>
  <path id="svg_4" fill="#232323" d="m14.9436,20.965l2.5034,2.4729c0.3294,0.3254 0.3294,0.853 0,1.1784l-2.5034,2.473c-0.3295,0.3254 -0.8636,0.3254 -1.193,0l-2.5035,-2.473c-0.3294,-0.3254 -0.3294,-0.853 0,-1.1784l2.5035,-2.4729c0.3294,-0.3254 0.8635,-0.3254 1.193,0z"/>
  <path transform="translate(-0.127389 0.382166)" id="svg_5" fill="#0083FF" d="m14.52515,8.83463l4.79382,4.78093l-4.79382,4.78094l-4.79382,-4.78094l4.79382,-4.78093z"/>
 </g>
</svg>